# xmcd
#
# Track frame offsets: 
#        150
#        11807
#        27137
#        44055
#        63545
#        76080
#        92007
#        105102
#        120845
#        133565
#        147762
#        169540
#
# Disc length: 2638 seconds
#
# Revision: 10
# Processed by: cddbd v1.5.2PL0 Copyright (c) Steve Scherf et al.
# Submitted via: ExactAudioCopy v0.95b4
#
DISCID=8b0a4c0c
DTITLE=Static-X - Wisconsin Death Trip
DYEAR=1999
DGENRE=Industrial Metal 
TTITLE0=Push It
TTITLE1=I'm With Stupid
TTITLE2=Bled For Days
TTITLE3=Love Dump
TTITLE4=I Am
TTITLE5=Otsegolation
TTITLE6=Stem
TTITLE7=Sweat Of The Bud
TTITLE8=Fix
TTITLE9=Wisconsin Death Trip
TTITLE10=The Trance Is The Motion
TTITLE11=December
EXTD=
EXTT0=
EXTT1=
EXTT2=
EXTT3=
EXTT4=
EXTT5=
EXTT6=
EXTT7=
EXTT8=
EXTT9=
EXTT10=
EXTT11=
PLAYORDER=
